<?xml version="1.0" encoding="UTF-8" standalone="no"?>
<svg width="32" height="32" viewBox="0 0 32 32" xmlns="http://www.w3.org/2000/svg">
  <!-- Background Circle -->
  <circle cx="16" cy="16" r="15" fill="#1a1d21" stroke="#007bff" stroke-width="2"/>
  
  <!-- Trading Chart Lines -->
  <polyline 
    points="4,20 8,16 12,22 16,8 20,14 24,10 28,12" 
    fill="none" 
    stroke="#28a745" 
    stroke-width="2"
    stroke-linecap="round"
    stroke-linejoin="round"/>
  
  <!-- Health Cross -->
  <path 
    d="M14,14 L14,10 L18,10 L18,14 L22,14 L22,18 L18,18 L18,22 L14,22 L14,18 L10,18 L10,14 Z" 
    fill="#007bff"
    transform="translate(-6,-6) scale(0.75)"/>
  
  <!-- Pulse Line -->
  <path 
    d="M8,16 L12,16 L14,12 L18,20 L20,16 L24,16" 
    fill="none" 
    stroke="#dc3545" 
    stroke-width="2"
    stroke-linecap="round"
    stroke-linejoin="round"
    transform="translate(0,8) scale(1,0.5)"/>
</svg>
